Run_40002
nRows=4
nColumns=173

# SIMM Motion File Header:
name Run_40002
datacolumns 173
datarows 4
otherdata 1
range 2.71000000 2.74000000
endheader
time	pelvis_tilt	pelvis_list	pelvis_rotation	pelvis_tx	pelvis_ty	pelvis_tz	hip_flexion_r	hip_adduction_r	hip_rotation_r	knee_angle_r	ankle_angle_r	hip_flexion_l	hip_adduction_l	hip_rotation_l	knee_angle_l	ankle_angle_l	lumbar_extension	lumbar_bending	lumbar_rotation	arm_flex_r	arm_add_r	arm_rot_r	elbow_flex_r	pro_sup_r	arm_flex_l	arm_add_l	arm_rot_l	elbow_flex_l	pro_sup_l	subtalar_angle_r	mtp_angle_r	subtalar_angle_l	mtp_angle_l	wrist_flex_r	wrist_dev_r	wrist_flex_l	wrist_dev_l	LASI_tx	LASI_ty	LASI_tz	RASI_tx	RASI_ty	RASI_tz	LPSI_tx	LPSI_ty	LPSI_tz	RPSI_tx	RPSI_ty	RPSI_tz	RTH1_tx	RTH1_ty	RTH1_tz	RTH2_tx	RTH2_ty	RTH2_tz	RTH3_tx	RTH3_ty	RTH3_tz	LTH1_tx	LTH1_ty	LTH1_tz	LTH2_tx	LTH2_ty	LTH2_tz	LTH3_tx	LTH3_ty	LTH3_tz	RTB1_tx	RTB1_ty	RTB1_tz	RTB2_tx	RTB2_ty	RTB2_tz	RTB3_tx	RTB3_ty	RTB3_tz	RLMAL_tx	RLMAL_ty	RLMAL_tz	RMMAL_tx	RMMAL_ty	RMMAL_tz	LTB1_tx	LTB1_ty	LTB1_tz	LTB2_tx	LTB2_ty	LTB2_tz	LTB3_tx	LTB3_ty	LTB3_tz	RCAL_tx	RCAL_ty	RCAL_tz	RTOE_tx	RTOE_ty	RTOE_tz	RMT5_tx	RMT5_ty	RMT5_tz	LCAL_tx	LCAL_ty	LCAL_tz	LTOE_tx	LTOE_ty	LTOE_tz	LMT5_tx	LMT5_ty	LMT5_tz	LACR_tx	LACR_ty	LACR_tz	RACR_tx	RACR_ty	RACR_tz	CLAV_tx	CLAV_ty	CLAV_tz	C7_tx	C7_ty	C7_tz	LPSH_tx	LPSH_ty	LPSH_tz	RUA1_tx	RUA1_ty	RUA1_tz	RUA2_tx	RUA2_ty	RUA2_tz	RUA3_tx	RUA3_ty	RUA3_tz	RLEL_tx	RLEL_ty	RLEL_tz	RMEL_tx	RMEL_ty	RMEL_tz	LUA1_tx	LUA1_ty	LUA1_tz	LUA2_tx	LUA2_ty	LUA2_tz	LUA3_tx	LUA3_ty	LUA3_tz	LLEL_tx	LLEL_ty	LLEL_tz	LMEL_tx	LMEL_ty	LMEL_tz	RFAsuperior_tx	RFAsuperior_ty	RFAsuperior_tz	RFAradius_tx	RFAradius_ty	RFAradius_tz	RFAulna_tx	RFAulna_ty	RFAulna_tz	LFAsuperior_tx	LFAsuperior_ty	LFAsuperior_tz	LFAradius_tx	LFAradius_ty	LFAradius_tz	LFAulna_tx	LFAulna_ty	LFAulna_tz
      2.71000000	     -2.48036973	     -4.10412160	     -1.55866946	      0.96711218	      1.05035641	     -0.32506452	     25.62559314	      8.71338321	      4.43328807	    -12.55647819	     -7.88595470	     -9.65711899	      2.70771830	     -1.31733341	    -69.79042846	    -10.59363382	     -4.14402016	      9.41728831	     -3.40404732	    -37.34085106	    -16.71515949	    -13.71236686	    113.96027745	     89.31480371	    -18.81899705	    -20.19686286	      7.42651549	    130.22502696	     95.83339906	      0.00000000	      0.00000000	      0.00000000	      0.00000000	      0.00000000	      0.00000000	      0.00000000	      0.00000000	      0.97595413	      1.08220501	     -0.44259639	      0.97296342	      1.09554611	     -0.20966832	      0.81210706	      1.12283404	     -0.37677511	      0.81094485	      1.12113564	     -0.28781162	      0.94669279	      0.83525908	     -0.15238213	      1.04327324	      0.79393154	     -0.17668808	      1.01356429	      0.67911738	     -0.18572422	      0.83356960	      0.86580330	     -0.48136788	      0.87749480	      0.74267358	     -0.46760602	      0.80208921	      0.66152273	     -0.45027620	      1.13151736	      0.45981789	     -0.23572820	      1.10190451	      0.39440758	     -0.19685733	      1.14985427	      0.27839078	     -0.24996161	      1.13242848	      0.15397575	     -0.24253502	      1.15240086	      0.18909348	     -0.31829843	      0.68308807	      0.48553424	     -0.41141348	      0.56394599	      0.55286791	     -0.41900718	      0.49153094	      0.46904188	     -0.38443740	      1.07985812	      0.13451040	     -0.31183840	      1.30245872	      0.13064002	     -0.28728441	      1.23681404	      0.08550033	     -0.22480120	      0.34645488	      0.54214083	     -0.31799066	      0.32033230	      0.32306895	     -0.35723590	      0.29394935	      0.38797822	     -0.41374756	      0.94345165	      1.60275704	     -0.44910643	      0.91912334	      1.55875683	     -0.14228044	      0.99247455	      1.51239487	     -0.27300792	      0.88271538	      1.60018603	     -0.29928136	      0.86587069	      1.56485465	     -0.47582230	      0.82773220	      1.44031263	     -0.06111840	      0.74337235	      1.41518228	     -0.09465605	      0.72182255	      1.36587783	     -0.04955636	      0.70630541	      1.30014065	     -0.01834800	      0.68923483	      1.28870620	     -0.10586496	      0.88179018	      1.49218422	     -0.54640338	      0.81981350	      1.41589758	     -0.55552422	      0.85166288	      1.37988616	     -0.61428138	      0.86304474	      1.30309035	     -0.64349755	      0.80721707	      1.28161679	     -0.57238397	      0.74724718	      1.23256609	     -0.02870643	      0.94077976	      1.21384563	     -0.07884018	      0.91800357	      1.15161136	     -0.06513796	      0.92432704	      1.25669016	     -0.58246849	      1.03102576	      1.32834148	     -0.45989423	      1.05032605	      1.26477586	     -0.47548964
      2.72000000	     -2.36229495	     -4.39979245	     -1.51648431	      0.96554844	      1.04459914	     -0.32456739	     25.19818636	      9.30537393	      4.20676608	    -14.65361265	     -8.17068887	     -7.01091614	      2.10599360	     -1.60478637	    -76.05563610	     -9.37466176	     -4.61472120	      9.83577119	     -2.63117551	    -36.08564431	    -17.47523475	    -13.51432557	    112.96526190	     89.25800862	    -19.98273591	    -21.09084045	      6.62859770	    127.90635953	     96.62451814	      0.00000000	      0.00000000	      0.00000000	      0.00000000	      0.00000000	      0.00000000	      0.00000000	      0.00000000	      0.97452477	      1.07584133	     -0.44164386	      0.97138376	      1.08970249	     -0.20924618	      0.81055939	      1.11599025	     -0.37550488	      0.80928017	      1.11539509	     -0.28669083	      0.94534996	      0.83076836	     -0.15451458	      1.04173753	      0.79162549	     -0.17767860	      1.00962416	      0.67475917	     -0.18746446	      0.83774141	      0.85624900	     -0.48047452	      0.88662256	      0.73510645	     -0.46882888	      0.81510401	      0.65158362	     -0.45077887	      1.12118338	      0.45038786	     -0.23790106	      1.08894705	      0.38574238	     -0.19911613	      1.13321653	      0.26807117	     -0.25221818	      1.11117427	      0.14405509	     -0.24522727	      1.13294416	      0.17880658	     -0.32102054	      0.69901095	      0.48165175	     -0.41318075	      0.58368129	      0.55546133	     -0.42155449	      0.50702744	      0.47655158	     -0.38645094	      1.05815114	      0.12740358	     -0.31519646	      1.27998796	      0.11366630	     -0.29018562	      1.21195574	      0.07101157	     -0.22833659	      0.36628544	      0.55757709	     -0.32040121	      0.33052785	      0.34009672	     -0.36083135	      0.30756268	      0.40646774	     -0.41719183	      0.94332403	      1.59657407	     -0.44878748	      0.92173091	      1.55158879	     -0.14127639	      0.99290961	      1.50595209	     -0.27305144	      0.88285027	      1.59411153	     -0.29845550	      0.86524373	      1.55918198	     -0.47456276	      0.83320553	      1.43187123	     -0.05785930	      0.74822898	      1.40568396	     -0.08893836	      0.72867865	      1.35598239	     -0.04340550	      0.71421821	      1.29028823	     -0.01175811	      0.69617618	      1.27839346	     -0.09894918	      0.87874616	      1.48899268	     -0.54628040	      0.81519350	      1.41449140	     -0.55568176	      0.84506412	      1.37895561	     -0.61590365	      0.85387498	      1.30241462	     -0.64695635	      0.79915889	      1.28090401	     -0.57540884	      0.75527501	      1.22253976	     -0.02269005	      0.94804100	      1.20379234	     -0.07616507	      0.92552367	      1.14179589	     -0.06145814	      0.91449318	      1.24999926	     -0.58986686	      1.02783521	      1.31059262	     -0.46709316	      1.04409306	      1.24746860	     -0.48699612
      2.73000000	     -2.25045741	     -4.51681588	     -1.69058888	      0.96356558	      1.03779107	     -0.32380755	     24.68616420	      9.91220847	      5.20986587	    -17.29856366	     -7.44580213	     -4.18941331	      1.64042707	     -2.05972540	    -82.09119734	     -7.90448503	     -5.14117133	     10.00441636	     -1.58559775	    -34.67269948	    -18.28283615	    -13.15378716	    111.91393561	     89.05222791	    -21.16418985	    -21.97621757	      5.61465995	    125.44546746	     97.50403245	      0.00000000	      0.00000000	      0.00000000	      0.00000000	      0.00000000	      0.00000000	      0.00000000	      0.00000000	      0.97258643	      1.06879103	     -0.44017649	      0.96958256	      1.08285514	     -0.20817147	      0.80939250	      1.10835476	     -0.37469926	      0.80691225	      1.10813620	     -0.28543439	      0.94395790	      0.82440464	     -0.15745090	      1.03931377	      0.78775909	     -0.18135581	      1.00517432	      0.66905560	     -0.18937863	      0.84247957	      0.84636608	     -0.48013529	      0.89655983	      0.72736202	     -0.47047338	      0.82938234	      0.64123471	     -0.45181107	      1.10949459	      0.43940501	     -0.24056260	      1.07481002	      0.37624843	     -0.20109745	      1.11297518	      0.25637502	     -0.25438601	      1.08528542	      0.13377001	     -0.24679006	      1.10742404	      0.16690312	     -0.32321454	      0.71712717	      0.47723400	     -0.41547797	      0.60559547	      0.55665548	     -0.42443311	      0.52536037	      0.48224363	     -0.38893828	      1.02989575	      0.11888917	     -0.31706214	      1.25169878	      0.09560358	     -0.29451774	      1.18152151	      0.05925143	     -0.23027352	      0.38806949	      0.57014905	     -0.32321270	      0.34569793	      0.35404003	     -0.36440808	      0.32491828	      0.42130720	     -0.42061921	      0.94270624	      1.58925762	     -0.44920981	      0.92425822	      1.54341974	     -0.14039905	      0.99336615	      1.49878014	     -0.27312269	      0.88312489	      1.58711272	     -0.29789693	      0.86409191	      1.55214521	     -0.47347697	      0.83921950	      1.42209551	     -0.05456493	      0.75355817	      1.39480492	     -0.08307226	      0.73617818	      1.34474441	     -0.03710137	      0.72299022	      1.27911138	     -0.00494362	      0.70346172	      1.26678211	     -0.09158818	      0.87499804	      1.48448843	     -0.54620679	      0.81027414	      1.41166178	     -0.55559719	      0.83792781	      1.37669926	     -0.61736378	      0.84398110	      1.30054204	     -0.65019730	      0.79056325	      1.27916878	     -0.57815692	      0.76422682	      1.21122756	     -0.01664003	      0.95608289	      1.19276207	     -0.07384464	      0.93391981	      1.13102849	     -0.05819922	      0.90358757	      1.24227088	     -0.59748043	      1.02336964	      1.29160163	     -0.47594871	      1.03645901	      1.22897603	     -0.50053786
      2.74000000	     -2.10294580	     -4.51101990	     -1.98603449	      0.96131866	      1.03004600	     -0.32261568	     23.99643791	     10.61666113	      6.82118808	    -20.39614401	     -4.50650264	     -1.23826163	      1.18478765	     -2.61115529	    -87.87591982	     -6.30457479	     -5.74894154	      9.96327292	     -0.33058852	    -33.14174143	    -19.03325660	    -12.68429664	    110.86112714	     88.71275769	    -22.32622452	    -22.89567770	      4.47947798	    122.90507197	     97.88435346	      0.00000000	      0.00000000	      0.00000000	      0.00000000	      0.00000000	      0.00000000	      0.00000000	      0.00000000	      0.97027930	      1.06120319	     -0.43846054	      0.96790657	      1.07531637	     -0.20630875	      0.80826979	      1.10004120	     -0.37407607	      0.80420002	      1.09956269	     -0.28411318	      0.94146596	      0.81592919	     -0.15912862	      1.03544137	      0.78042530	     -0.18676376	      1.00006879	      0.66079606	     -0.19112203	      0.84767654	      0.83629422	     -0.48017054	      0.90740046	      0.71962265	     -0.47245955	      0.84489180	      0.63074445	     -0.45333214	      1.09598968	      0.42692554	     -0.24435023	      1.05945657	      0.36561078	     -0.20395244	      1.08864545	      0.24368003	     -0.25778572	      1.05426547	      0.12440426	     -0.24859517	      1.07482648	      0.15464335	     -0.32616177	      0.73737032	      0.47239006	     -0.41825127	      0.62949172	      0.55655810	     -0.42758133	      0.54626309	      0.48600404	     -0.39185348	      0.99504769	      0.10960038	     -0.31862295	      1.21821471	      0.08071834	     -0.29934807	      1.14642780	      0.05284501	     -0.23097321	      0.41147292	      0.57986620	     -0.32652788	      0.36497693	      0.36468868	     -0.36772387	      0.34566766	      0.43234240	     -0.42404647	      0.94171875	      1.58074546	     -0.45007027	      0.92684912	      1.53439964	     -0.13967854	      0.99388167	      1.49078743	     -0.27325836	      0.88357945	      1.57911527	     -0.29744208	      0.86257739	      1.54386612	     -0.47255123	      0.84578400	      1.41115108	     -0.05132155	      0.75941254	      1.38271836	     -0.07717869	      0.74437855	      1.33233954	     -0.03073292	      0.73269442	      1.26678446	      0.00177712	      0.71131180	      1.25401332	     -0.08407268	      0.87068620	      1.47867244	     -0.54610738	      0.80502167	      1.40737632	     -0.55509877	      0.83018867	      1.37322950	     -0.61857057	      0.83339447	      1.29758671	     -0.65316477	      0.78156268	      1.27631109	     -0.58057531	      0.77412376	      1.19888087	     -0.01075918	      0.96495870	      1.18109610	     -0.07197775	      0.94317474	      1.11954461	     -0.05550153	      0.89176036	      1.23375405	     -0.60533280	      1.01773937	      1.27181279	     -0.48650169	      1.02733288	      1.20975423	     -0.51510218
